<svg width="65" height="42" viewBox="0 0 65 42" fill="none" xmlns="http://www.w3.org/2000/svg">
<path d="M20.5 19.7V24.7H32.3C30.9 30.8 26.6 34.6 20.8 34.6C13.2 34.6 7.1 28.4 7.1 20.9C7.1 13.4 13.2 7.1 20.8 7.1C24.4 7.1 27.7 8.5 30.1 10.8L34 7.5C30.6 4 25.9 2 20.8 2C10.4 2 2 10.4 2 20.8C2 31.2 10.4 39.6 20.8 39.6C30.8 39.6 38 32 38 21.6V19.7H20.5Z" stroke="#7D7D7D" stroke-width="3" stroke-miterlimit="10" stroke-linejoin="round"/>
<path d="M63.1996 19.9016H55.8996V12.6016H51.2996V19.9016H44.0996V24.5016H51.2996V31.7016H55.8996V24.5016H63.1996V19.9016Z" stroke="#7D7D7D" stroke-width="3" stroke-miterlimit="10" stroke-linejoin="round"/>
</svg>
