<svg width="52" height="32" viewBox="0 0 52 32" fill="none" xmlns="http://www.w3.org/2000/svg">
<path fill-rule="evenodd" clip-rule="evenodd" d="M49.1775 4.12974C48.5775 3.62974 46.2775 3.62974 43.9775 3.62974C41.6775 3.62974 39.3775 3.62974 38.8775 3.92974C38.3775 4.12974 37.2775 6.82974 35.8775 9.52974C34.2775 12.6297 32.2775 15.6297 30.9775 15.5297C29.2775 15.5297 29.6775 10.4297 29.8775 6.62974C29.8775 4.12974 29.4775 3.32974 29.1775 3.12974C28.2775 2.62974 25.8775 2.02974 25.8775 2.02974C25.8775 2.02974 18.6775 1.52974 17.6775 4.62974C19.0775 4.82974 21.3775 4.42974 20.4775 13.9297C20.3775 14.4297 19.3775 18.3297 16.0775 13.0297C15.2775 11.7297 12.0775 3.72974 10.8775 3.62974C7.27754 3.52974 3.57754 3.42974 2.27754 4.12974C1.07754 4.82974 3.87754 10.3297 8.57754 17.6297C12.3775 23.6297 16.4775 28.3297 23.4775 29.5297C24.7775 29.6297 28.2775 29.8297 29.3775 29.3297C30.0775 28.9297 29.1775 23.7297 31.6775 23.2297C32.7775 23.0297 37.0775 28.6297 38.6775 29.3297C39.6775 29.7297 41.7775 29.9297 43.9775 29.8297C46.3775 29.7297 49.0775 30.0297 49.3775 28.4297C49.9775 24.8297 42.1775 20.1297 41.8775 17.9297C41.6775 16.3297 44.7775 13.4297 46.2775 11.1297C48.2775 8.42974 50.3775 5.12974 49.1775 4.12974Z" stroke="#7D7D7D" stroke-width="3" stroke-miterlimit="10" stroke-linejoin="round"/>
</svg>
