<svg width="28" height="51" viewBox="0 0 28 51" fill="none" xmlns="http://www.w3.org/2000/svg">
<path fill-rule="evenodd" clip-rule="evenodd" d="M7.26238 25.6016V48.1016C7.26238 48.4016 7.59128 48.7016 7.92018 48.7016H17.1293C17.4582 48.7016 17.7871 48.4016 17.7871 48.1016V25.3016H24.4747C24.8036 25.3016 25.1325 25.1016 25.1325 24.8016L25.7903 17.9016C25.7903 17.6016 25.5711 17.3016 25.1325 17.3016H17.7871V12.4016C17.7871 11.2016 18.7738 10.3016 20.0894 10.3016H25.2422C25.5711 10.3016 25.9 10.0016 25.9 9.70156V2.70156C25.9 2.40156 25.5711 2.10156 25.2422 2.10156H16.5812C11.5381 2.10156 7.37201 5.90156 7.37201 10.5016V17.2016H2.6578C2.3289 17.2016 2 17.5016 2 17.8016V24.7016C2 25.0016 2.3289 25.3016 2.6578 25.3016H7.26238V25.6016Z" stroke="#7D7D7D" stroke-width="3" stroke-miterlimit="10" stroke-linejoin="round"/>
</svg>
